<?xml version="1.0" standalone="no"?>
<!DOCTYPE svg PUBLIC "-//W3C//DTD SVG 20010904//EN"
 "http://www.w3.org/TR/2001/REC-SVG-20010904/DTD/svg10.dtd">
<svg version="1.0" xmlns="http://www.w3.org/2000/svg"
 width="1024.000000pt" height="1024.000000pt" viewBox="0 0 1024.000000 1024.000000"
 preserveAspectRatio="xMidYMid meet">
<metadata>
Created by potrace 1.11, written by Peter Selinger 2001-2013
</metadata>
<g transform="translate(0.000000,1024.000000) scale(0.100000,-0.100000)"
fill="#000000" stroke="none">
<path d="M5118 9825 c-2 -1 -66 -5 -143 -9 -77 -3 -153 -8 -170 -10 -16 -3
-53 -7 -81 -10 -45 -5 -142 -22 -239 -41 -128 -25 -398 -110 -474 -149 -17 -9
-34 -17 -38 -17 -5 -1 -46 -19 -92 -42 -496 -237 -954 -682 -1173 -1137 -50
-104 -63 -134 -92 -218 -97 -273 -138 -613 -110 -907 4 -44 8 -87 9 -95 1 -8
4 -28 8 -45 3 -16 9 -46 11 -65 14 -98 71 -285 128 -420 193 -459 580 -882
1050 -1149 32 -18 60 -36 63 -41 3 -5 1 -28 -4 -52 -6 -24 -13 -59 -16 -78 -3
-19 -20 -104 -36 -189 -17 -85 -33 -187 -36 -227 -11 -157 69 -308 194 -365
l48 -21 1205 -1 c956 0 1214 3 1245 13 90 29 177 118 216 220 33 88 30 172
-16 365 -9 39 -18 77 -20 85 -2 8 -15 64 -29 123 -14 60 -26 114 -26 121 0 7
24 26 53 41 186 101 384 252 557 425 316 315 521 672 614 1070 25 106 29 128
45 255 9 71 7 424 -3 482 -53 326 -106 498 -223 722 -136 260 -312 477 -583
718 -221 197 -565 393 -862 494 -156 53 -389 105 -547 124 -30 4 -63 9 -75 11
-12 3 -88 7 -171 10 -82 3 -158 7 -167 8 -9 2 -18 3 -20 1z m-857 -2079 c83
-22 165 -75 249 -160 137 -139 184 -244 184 -411 -1 -82 -5 -114 -28 -178
-118 -346 -528 -508 -836 -330 -113 65 -217 183 -265 300 -69 171 -46 385 57
533 39 56 122 138 180 177 122 83 307 111 459 69z m2051 1 c127 -32 305 -181
376 -315 132 -248 53 -552 -188 -729 -68 -49 -104 -66 -197 -91 -68 -18 -190
-22 -248 -9 -11 3 -33 8 -50 12 -71 18 -196 93 -255 154 -53 55 -103 134 -131
204 -28 71 -32 97 -35 187 -4 159 30 261 126 382 150 186 374 262 602 205z"/>
<path d="M1540 5115 c-150 -31 -166 -51 -343 -408 -80 -161 -148 -303 -152
-316 -26 -87 -1 -203 60 -277 39 -48 70 -64 645 -342 80 -38 233 -112 340
-165 107 -52 265 -128 350 -170 85 -41 250 -121 365 -177 116 -56 264 -128
330 -160 66 -32 231 -112 366 -178 135 -66 256 -123 268 -127 11 -3 21 -10 21
-14 0 -7 -137 -75 -665 -332 -330 -160 -539 -262 -790 -384 -121 -59 -287
-140 -370 -180 -82 -40 -258 -125 -390 -190 -132 -64 -276 -134 -320 -155 -44
-21 -99 -55 -122 -75 -76 -65 -114 -184 -92 -284 5 -23 74 -173 154 -333 122
-245 153 -300 190 -335 51 -47 124 -75 202 -78 55 -2 45 -7 318 125 72 34 175
84 230 110 55 26 186 89 290 140 105 51 231 112 280 135 173 82 321 153 500
240 99 48 225 109 280 135 55 26 172 82 260 125 165 80 309 149 500 240 61 29
182 87 270 130 537 260 611 295 624 295 10 0 88 -37 446 -210 77 -37 197 -95
268 -129 178 -85 348 -167 512 -246 263 -127 410 -197 520 -250 122 -59 336
-161 543 -261 290 -140 430 -207 497 -239 39 -18 151 -72 250 -120 410 -199
449 -216 495 -220 99 -6 207 42 258 117 55 82 303 597 311 646 14 97 -33 223
-103 277 -17 13 -142 78 -276 143 -397 194 -614 299 -795 387 -225 109 -486
236 -780 380 -132 65 -289 141 -350 170 -60 29 -188 91 -283 137 l-173 85 103
51 c136 67 490 239 653 317 72 34 229 111 350 170 121 59 292 142 380 185 643
312 842 408 1005 488 88 43 160 85 183 107 69 67 101 173 83 273 -10 56 -286
610 -327 657 -62 71 -189 112 -276 91 -23 -6 -48 -17 -55 -23 -6 -7 -15 -13
-19 -13 -4 0 -96 -43 -205 -96 -110 -53 -230 -111 -269 -129 -38 -18 -155 -74
-260 -125 -182 -89 -298 -144 -560 -270 -66 -32 -187 -90 -270 -130 -82 -40
-195 -94 -250 -120 -104 -50 -341 -163 -530 -255 -164 -79 -535 -258 -795
-382 -203 -97 -279 -133 -283 -133 -3 0 -89 41 -193 91 -181 87 -287 138 -529
254 -60 29 -191 92 -290 140 -99 48 -216 104 -260 125 -44 21 -152 72 -240
115 -88 42 -209 101 -270 130 -60 29 -177 85 -260 125 -82 40 -206 99 -275
132 -69 33 -183 89 -255 123 -71 34 -186 90 -255 123 -69 33 -197 94 -285 137
-88 42 -207 100 -264 128 -128 61 -151 67 -221 52z"/>
</g>
</svg>
